<?xml version="1.0" encoding="UTF-8"?>
<svg viewBox="0 0 362.07983 394.52026" xmlns="http://www.w3.org/2000/svg">
 <defs>
  <filter id="a"/>
  <filter id="j" x="-.19631" y="-.60556" width="1.3926" height="2.2111">
   <feGaussianBlur stdDeviation="21.26663"/>
  </filter>
  <radialGradient id="i" cx="-1274.8" cy="975.63" r="185.87" gradientTransform="matrix(-.50046 1.2795 -1.4009 -.54793 -507.69 3149.4)" gradientUnits="userSpaceOnUse">
   <stop stop-color="#666" offset="0"/>
   <stop stop-color="#4d4d4d" offset=".5"/>
   <stop offset="1"/>
  </radialGradient>
  <radialGradient id="h" cx="-1233.8" cy="975.87" r="185.87" gradientTransform="matrix(-.01424 1.042 -.99991 -.01366 -275.57 2274.8)" gradientUnits="userSpaceOnUse">
   <stop offset="0"/>
   <stop stop-color="#999" offset="1"/>
  </radialGradient>
  <radialGradient id="g" cx="-1236.1" cy="978.44" r="185.87" gradientTransform="matrix(-.00193 1.0281 -1 -.00188 -260.01 2251.1)" gradientUnits="userSpaceOnUse">
   <stop stop-color="#4d4d4d" offset="0"/>
   <stop stop-color="#4d4d4d" stop-opacity="0" offset="1"/>
  </radialGradient>
  <radialGradient id="f" cx="-1237.1" cy="983.58" r="185.87" gradientTransform="matrix(.00364 1.0005 -.99999 .00363 -249.02 2217.7)" gradientUnits="userSpaceOnUse">
   <stop stop-color="#fff" offset="0"/>
   <stop stop-color="#4d4d4d" offset="1"/>
  </radialGradient>
  <radialGradient id="e" cx="-1222.1" cy="989.21" r="185.87" gradientTransform="matrix(-.05298 1.022 -.99866 -.05177 -313.29 2283.8)" gradientUnits="userSpaceOnUse">
   <stop offset="0"/>
   <stop stop-color="#999" offset=".72581"/>
   <stop stop-color="#7f7f7f" offset=".87161"/>
   <stop stop-color="#333" offset="1"/>
  </radialGradient>
  <radialGradient id="d" cx="-1237.7" cy="968.02" r="185.87" gradientTransform="matrix(.00694 1.0842 -.99998 .0064 -261.14 2303.8)" gradientUnits="userSpaceOnUse">
   <stop stop-color="#ccc" offset="0"/>
   <stop stop-color="#1a1a1a" offset="1"/>
  </radialGradient>
  <radialGradient id="c" cx="-1206" cy="910.29" r="185.87" gradientTransform="matrix(-2.8022e-8 1 -1 -3.3514e-8 -326.13 2189.7)" gradientUnits="userSpaceOnUse">
   <stop stop-color="#fff" offset="0"/>
   <stop stop-color="#808080" offset="1"/>
  </radialGradient>
  <radialGradient id="b" cx="-1206" cy="910.29" r="185.87" gradientTransform="matrix(-2.8022e-8 1 -1 -3.3514e-8 -326.13 2189.7)" gradientUnits="userSpaceOnUse">
   <stop stop-color="#4d4d4d" offset="0"/>
   <stop stop-color="#b3b3b3" offset="1"/>
  </radialGradient>
 </defs>
 <path transform="matrix(1 0 0 .52542 -440.39 -771.46)" d="m751.43 2125.9c0 23.275-58.203 42.143-130 42.143s-130-18.868-130-42.143 58.203-42.143 130-42.143 130 18.868 130 42.143z" fill="#666" filter="url(#j)"/>
 <g transform="translate(-447.06 -1774.7)">
  <path transform="matrix(.91304 0 0 .91304 1757 1046.2)" d="m-1050.6 983.67c0 102.65-83.216 185.87-185.87 185.87s-185.87-83.216-185.87-185.87 83.216-185.87 185.87-185.87 185.87 83.216 185.87 185.87z" fill="url(#i)"/>
  <path transform="matrix(.65217 0 0 .65217 1434.5 1302.8)" d="m-1050.6 983.67c0 102.65-83.216 185.87-185.87 185.87s-185.87-83.216-185.87-185.87 83.216-185.87 185.87-185.87 185.87 83.216 185.87 185.87z" fill="url(#h)"/>
  <path transform="matrix(.58696 0 0 .58696 1353.8 1367)" d="m-1050.6 983.67c0 102.65-83.216 185.87-185.87 185.87s-185.87-83.216-185.87-185.87 83.216-185.87 185.87-185.87 185.87 83.216 185.87 185.87z" fill="url(#g)"/>
  <path d="m628.1 1835.3c-8.7295 0-17.207 1.032-25.344 2.9688 2.1449 9.2229 12.667 16.219 25.344 16.219 12.662 0 23.182-6.9808 25.344-16.188-8.1364-1.9365-16.615-3-25.344-3z" fill="#333" opacity=".8"/>
  <path d="m548.88 1869.4c-11.623 12.275-20.434 27.239-25.375 43.875 9.0597 2.7536 20.412-2.8653 26.75-13.844 6.3278-10.96 5.5075-23.552-1.375-30.031z" fill="#333" opacity=".8"/>
  <path d="m527.95 1974.8c-1.5211 0.028-3.0018 0.2506-4.4375 0.6874 4.9406 16.636 13.752 31.6 25.375 43.875 6.8825-6.4788 7.7028-19.071 1.375-30.031-5.3348-9.2402-14.235-14.68-22.312-14.531z" fill="#333" opacity=".8"/>
  <path d="m628.1 2034.3c-12.677 0-23.199 7.0271-25.344 16.25 8.1368 1.9367 16.614 2.9375 25.344 2.9375s17.207-1.0322 25.344-2.9688c-2.1623-9.2066-12.682-16.219-25.344-16.219z" fill="#333" opacity=".8"/>
  <path d="m727.23 1974.8c-7.7976 0.3016-16.137 5.676-21.25 14.531-6.3277 10.96-5.5387 23.552 1.3438 30.031 11.623-12.275 20.434-27.239 25.375-43.875-1.7534-0.5334-3.5976-0.7598-5.4688-0.6874z" fill="#333" opacity=".8"/>
  <path d="m707.32 1869.4c-6.8825 6.4789-7.6715 19.071-1.3438 30.031 6.3384 10.978 17.659 16.597 26.719 13.844-4.9406-16.636-13.752-31.6-25.375-43.875z" fill="#333" opacity=".8"/>
  <path transform="matrix(.43478 0 0 .43478 1165.7 1516.7)" d="m-1050.6 983.67c0 102.65-83.216 185.87-185.87 185.87s-185.87-83.216-185.87-185.87 83.216-185.87 185.87-185.87 185.87 83.216 185.87 185.87z" fill="url(#f)"/>
  <path transform="matrix(.38043 0 0 .38043 1098.5 1570.1)" d="m-1050.6 983.67c0 102.65-83.216 185.87-185.87 185.87s-185.87-83.216-185.87-185.87 83.216-185.87 185.87-185.87 185.87 83.216 185.87 185.87z" fill="url(#e)"/>
  <path transform="matrix(.22826 0 0 .22826 910.33 1719.8)" d="m-1050.6 983.67c0 102.65-83.216 185.87-185.87 185.87s-185.87-83.216-185.87-185.87 83.216-185.87 185.87-185.87 185.87 83.216 185.87 185.87z" fill="url(#d)"/>
  <path transform="matrix(.17391 0 0 .17391 843.13 1773.3)" d="m-1050.6 983.67c0 102.65-83.216 185.87-185.87 185.87s-185.87-83.216-185.87-185.87 83.216-185.87 185.87-185.87 185.87 83.216 185.87 185.87z" fill="url(#c)"/>
  <g transform="translate(1871 949.1)" filter="url(#a)">
   <path transform="matrix(1.1515 0 0 1.1515 190.17 -142.58)" d="m-1246.8 941.88c0 2.3013-1.8655 4.1669-4.1668 4.1669s-4.1669-1.8656-4.1669-4.1669 1.8656-4.1669 4.1669-4.1669 4.1668 1.8656 4.1668 4.1669z" opacity=".8"/>
   <path transform="matrix(1.1515 0 0 1.1515 204.82 -142.58)" d="m-1246.8 941.88c0 2.3013-1.8655 4.1669-4.1668 4.1669s-4.1669-1.8656-4.1669-4.1669 1.8656-4.1669 4.1669-4.1669 4.1668 1.8656 4.1668 4.1669z" opacity=".8"/>
  </g>
  <path transform="matrix(1.1515 0 0 1.1515 2061.3 805.99)" d="m-1246.8 941.88c0 2.3013-1.8655 4.1669-4.1668 4.1669s-4.1669-1.8656-4.1669-4.1669 1.8656-4.1669 4.1669-4.1669 4.1668 1.8656 4.1668 4.1669z" fill="#f60" opacity=".8"/>
  <path transform="matrix(1.1515 0 0 1.1515 2075.9 805.99)" d="m-1246.8 941.88c0 2.3013-1.8655 4.1669-4.1668 4.1669s-4.1669-1.8656-4.1669-4.1669 1.8656-4.1669 4.1669-4.1669 4.1668 1.8656 4.1668 4.1669z" fill="#f60" opacity=".8"/>
  <g transform="matrix(.70711 -.70711 .70711 .70711 802.81 361.83)" filter="url(#a)">
   <path transform="matrix(1.1515 0 0 1.1515 190.17 -142.58)" d="m-1246.8 941.88c0 2.3013-1.8655 4.1669-4.1668 4.1669s-4.1669-1.8656-4.1669-4.1669 1.8656-4.1669 4.1669-4.1669 4.1668 1.8656 4.1668 4.1669z" opacity=".8"/>
   <path transform="matrix(1.1515 0 0 1.1515 204.82 -142.58)" d="m-1246.8 941.88c0 2.3013-1.8655 4.1669-4.1668 4.1669s-4.1669-1.8656-4.1669-4.1669 1.8656-4.1669 4.1669-4.1669 4.1668 1.8656 4.1668 4.1669z" opacity=".8"/>
  </g>
  <path transform="matrix(.81424 -.81424 .81424 .81424 836.55 126.01)" d="m-1246.8 941.88c0 2.3013-1.8655 4.1669-4.1668 4.1669s-4.1669-1.8656-4.1669-4.1669 1.8656-4.1669 4.1669-4.1669 4.1668 1.8656 4.1668 4.1669z" fill="#f60" opacity=".8"/>
  <path transform="matrix(.81424 -.81424 .81424 .81424 846.91 115.66)" d="m-1246.8 941.88c0 2.3013-1.8655 4.1669-4.1668 4.1669s-4.1669-1.8656-4.1669-4.1669 1.8656-4.1669 4.1669-4.1669 4.1668 1.8656 4.1668 4.1669z" fill="#f60" opacity=".8"/>
  <g transform="matrix(0 -1 1 0 -367.78 701.9)" filter="url(#a)">
   <path transform="matrix(1.1515 0 0 1.1515 190.17 -142.58)" d="m-1246.8 941.88c0 2.3013-1.8655 4.1669-4.1668 4.1669s-4.1669-1.8656-4.1669-4.1669 1.8656-4.1669 4.1669-4.1669 4.1668 1.8656 4.1668 4.1669z" opacity=".8"/>
   <path transform="matrix(1.1515 0 0 1.1515 204.82 -142.58)" d="m-1246.8 941.88c0 2.3013-1.8655 4.1669-4.1668 4.1669s-4.1669-1.8656-4.1669-4.1669 1.8656-4.1669 4.1669-4.1669 4.1668 1.8656 4.1668 4.1669z" opacity=".8"/>
  </g>
  <path transform="matrix(0 -1.1515 1.1515 0 -510.27 511.2)" d="m-1246.8 941.88c0 2.3013-1.8655 4.1669-4.1668 4.1669s-4.1669-1.8656-4.1669-4.1669 1.8656-4.1669 4.1669-4.1669 4.1668 1.8656 4.1668 4.1669z" fill="#f60" opacity=".8"/>
  <path transform="matrix(0 -1.1515 1.1515 0 -510.27 496.56)" d="m-1246.8 941.88c0 2.3013-1.8655 4.1669-4.1668 4.1669s-4.1669-1.8656-4.1669-4.1669 1.8656-4.1669 4.1669-4.1669 4.1668 1.8656 4.1668 4.1669z" fill="#f60" opacity=".8"/>
  <g transform="matrix(-.70711 -.70711 .70711 -.70711 -955.05 1770.1)" filter="url(#a)">
   <path transform="matrix(1.1515 0 0 1.1515 190.17 -142.58)" d="m-1246.8 941.88c0 2.3013-1.8655 4.1669-4.1668 4.1669s-4.1669-1.8656-4.1669-4.1669 1.8656-4.1669 4.1669-4.1669 4.1668 1.8656 4.1668 4.1669z" opacity=".8"/>
   <path transform="matrix(1.1515 0 0 1.1515 204.82 -142.58)" d="m-1246.8 941.88c0 2.3013-1.8655 4.1669-4.1668 4.1669s-4.1669-1.8656-4.1669-4.1669 1.8656-4.1669 4.1669-4.1669 4.1668 1.8656 4.1668 4.1669z" opacity=".8"/>
  </g>
  <path transform="matrix(-.81424 -.81424 .81424 -.81424 -1190.2 1735.9)" d="m-1246.8 941.88c0 2.3013-1.8655 4.1669-4.1668 4.1669s-4.1669-1.8656-4.1669-4.1669 1.8656-4.1669 4.1669-4.1669 4.1668 1.8656 4.1668 4.1669z" fill="#f60" opacity=".8"/>
  <path transform="matrix(-.81424 -.81424 .81424 -.81424 -1200.6 1725.6)" d="m-1246.8 941.88c0 2.3013-1.8655 4.1669-4.1668 4.1669s-4.1669-1.8656-4.1669-4.1669 1.8656-4.1669 4.1669-4.1669 4.1668 1.8656 4.1668 4.1669z" fill="#f60" opacity=".8"/>
  <g transform="matrix(-1 0 0 -1 -614.98 2940.7)" filter="url(#a)">
   <path transform="matrix(1.1515 0 0 1.1515 190.17 -142.58)" d="m-1246.8 941.88c0 2.3013-1.8655 4.1669-4.1668 4.1669s-4.1669-1.8656-4.1669-4.1669 1.8656-4.1669 4.1669-4.1669 4.1668 1.8656 4.1668 4.1669z" opacity=".8"/>
   <path transform="matrix(1.1515 0 0 1.1515 204.82 -142.58)" d="m-1246.8 941.88c0 2.3013-1.8655 4.1669-4.1668 4.1669s-4.1669-1.8656-4.1669-4.1669 1.8656-4.1669 4.1669-4.1669 4.1668 1.8656 4.1668 4.1669z" opacity=".8"/>
  </g>
  <path transform="matrix(-1.1515 0 0 -1.1515 -805.06 3082.7)" d="m-1246.8 941.88c0 2.3013-1.8655 4.1669-4.1668 4.1669s-4.1669-1.8656-4.1669-4.1669 1.8656-4.1669 4.1669-4.1669 4.1668 1.8656 4.1668 4.1669z" fill="#f60" opacity=".8"/>
  <path transform="matrix(-1.1515 0 0 -1.1515 -819.7 3082.7)" d="m-1246.8 941.88c0 2.3013-1.8655 4.1669-4.1668 4.1669s-4.1669-1.8656-4.1669-4.1669 1.8656-4.1669 4.1669-4.1669 4.1668 1.8656 4.1668 4.1669z" fill="#f60" opacity=".8"/>
  <g transform="matrix(-.70711 .70711 -.70711 -.70711 453.22 3528)" filter="url(#a)">
   <path transform="matrix(1.1515 0 0 1.1515 190.17 -142.58)" d="m-1246.8 941.88c0 2.3013-1.8655 4.1669-4.1668 4.1669s-4.1669-1.8656-4.1669-4.1669 1.8656-4.1669 4.1669-4.1669 4.1668 1.8656 4.1668 4.1669z" opacity=".8"/>
   <path transform="matrix(1.1515 0 0 1.1515 204.82 -142.58)" d="m-1246.8 941.88c0 2.3013-1.8655 4.1669-4.1668 4.1669s-4.1669-1.8656-4.1669-4.1669 1.8656-4.1669 4.1669-4.1669 4.1668 1.8656 4.1668 4.1669z" opacity=".8"/>
  </g>
  <path transform="matrix(-.81424 .81424 -.81424 -.81424 419.66 3762.7)" d="m-1246.8 941.88c0 2.3013-1.8655 4.1669-4.1668 4.1669s-4.1669-1.8656-4.1669-4.1669 1.8656-4.1669 4.1669-4.1669 4.1668 1.8656 4.1668 4.1669z" fill="#f60" opacity=".8"/>
  <path transform="matrix(-.81424 .81424 -.81424 -.81424 409.3 3773.1)" d="m-1246.8 941.88c0 2.3013-1.8655 4.1669-4.1668 4.1669s-4.1669-1.8656-4.1669-4.1669 1.8656-4.1669 4.1669-4.1669 4.1668 1.8656 4.1668 4.1669z" fill="#f60" opacity=".8"/>
  <g transform="matrix(0 1 -1 0 1623.8 3187.9)" filter="url(#a)">
   <path transform="matrix(1.1515 0 0 1.1515 190.17 -142.58)" d="m-1246.8 941.88c0 2.3013-1.8655 4.1669-4.1668 4.1669s-4.1669-1.8656-4.1669-4.1669 1.8656-4.1669 4.1669-4.1669 4.1668 1.8656 4.1668 4.1669z" opacity=".8"/>
   <path transform="matrix(1.1515 0 0 1.1515 204.82 -142.58)" d="m-1246.8 941.88c0 2.3013-1.8655 4.1669-4.1668 4.1669s-4.1669-1.8656-4.1669-4.1669 1.8656-4.1669 4.1669-4.1669 4.1668 1.8656 4.1668 4.1669z" opacity=".8"/>
  </g>
  <path transform="matrix(0 1.1515 -1.1515 0 1766.5 3377.5)" d="m-1246.8 941.88c0 2.3013-1.8655 4.1669-4.1668 4.1669s-4.1669-1.8656-4.1669-4.1669 1.8656-4.1669 4.1669-4.1669 4.1668 1.8656 4.1668 4.1669z" fill="#f60" opacity=".8"/>
  <path transform="matrix(0 1.1515 -1.1515 0 1766.5 3392.2)" d="m-1246.8 941.88c0 2.3013-1.8655 4.1669-4.1668 4.1669s-4.1669-1.8656-4.1669-4.1669 1.8656-4.1669 4.1669-4.1669 4.1668 1.8656 4.1668 4.1669z" fill="#f60" opacity=".8"/>
  <g transform="matrix(.70711 .70711 -.70711 .70711 2211.1 2119.7)" filter="url(#a)">
   <path transform="matrix(1.1515 0 0 1.1515 190.17 -142.58)" d="m-1246.8 941.88c0 2.3013-1.8655 4.1669-4.1668 4.1669s-4.1669-1.8656-4.1669-4.1669 1.8656-4.1669 4.1669-4.1669 4.1668 1.8656 4.1668 4.1669z" opacity=".8"/>
   <path transform="matrix(1.1515 0 0 1.1515 204.82 -142.58)" d="m-1246.8 941.88c0 2.3013-1.8655 4.1669-4.1668 4.1669s-4.1669-1.8656-4.1669-4.1669 1.8656-4.1669 4.1669-4.1669 4.1668 1.8656 4.1668 4.1669z" opacity=".8"/>
  </g>
  <path transform="matrix(.81424 .81424 -.81424 .81424 2446.5 2152.8)" d="m-1246.8 941.88c0 2.3013-1.8655 4.1669-4.1668 4.1669s-4.1669-1.8656-4.1669-4.1669 1.8656-4.1669 4.1669-4.1669 4.1668 1.8656 4.1668 4.1669z" fill="#f60" opacity=".8"/>
  <path transform="matrix(.81424 .81424 -.81424 .81424 2456.8 2163.2)" d="m-1246.8 941.88c0 2.3013-1.8655 4.1669-4.1668 4.1669s-4.1669-1.8656-4.1669-4.1669 1.8656-4.1669 4.1669-4.1669 4.1668 1.8656 4.1668 4.1669z" fill="#f60" opacity=".8"/>
  <path transform="matrix(.12228 0 0 .12228 779.3 1824.1)" d="m-1050.6 983.67c0 102.65-83.216 185.87-185.87 185.87s-185.87-83.216-185.87-185.87 83.216-185.87 185.87-185.87 185.87 83.216 185.87 185.87z" fill="url(#b)"/>
 </g>
</svg>
