<?xml version="1.0" encoding="UTF-8"?>
<svg viewBox="0 0 64 64" xmlns="http://www.w3.org/2000/svg" xmlns:xlink="http://www.w3.org/1999/xlink">
 <defs>
  <filter id="q"/>
  <filter id="a" x="-.0311" y="-.15261" width="1.0622" height="1.3052"/>
  <linearGradient id="b">
   <stop stop-color="#364e59" offset="0"/>
   <stop stop-color="#9eabb0" offset="1"/>
  </linearGradient>
  <linearGradient id="c">
   <stop stop-color="#364e59" offset="0"/>
   <stop stop-color="#bdcdd4" offset="1"/>
  </linearGradient>
  <linearGradient id="p" x1="399.59" x2="402.43" y1="423.32" y2="422.51" gradientUnits="userSpaceOnUse">
   <stop stop-color="#9eabb0" offset="0"/>
   <stop stop-color="#364e59" offset="1"/>
  </linearGradient>
  <linearGradient id="j" x1="392.67" x2="393.06" y1="432.36" y2="431.27" gradientUnits="userSpaceOnUse">
   <stop stop-color="#9eabb0" offset="0"/>
   <stop stop-color="#fff" offset="1"/>
  </linearGradient>
  <linearGradient id="i" x1="414.81" x2="411.62" y1="431.91" y2="428.92" gradientUnits="userSpaceOnUse">
   <stop stop-color="#b50000" offset="0"/>
   <stop stop-color="#ff4141" offset="1"/>
  </linearGradient>
  <linearGradient id="h" x1="405.43" x2="410.66" y1="427.43" y2="428.32" gradientUnits="userSpaceOnUse">
   <stop stop-color="#ff4141" offset="0"/>
   <stop stop-color="#ff4141" offset="1"/>
  </linearGradient>
  <linearGradient id="g" x1="22" x2="22.182" y1="16.364" y2="17.273" gradientUnits="userSpaceOnUse">
   <stop stop-color="#999" offset="0"/>
   <stop stop-color="#fff" offset="1"/>
  </linearGradient>
  <linearGradient id="f" x1="17.818" x2="19.091" y1="17.455" y2="18.545" gradientUnits="userSpaceOnUse">
   <stop stop-color="#fff" offset="0"/>
   <stop stop-color="#fff" offset="1"/>
  </linearGradient>
  <linearGradient id="e" x1="41.028" x2="40.843" y1="-38.663" y2="-36.543" gradientUnits="userSpaceOnUse">
   <stop stop-color="#0e232e" offset="0"/>
   <stop stop-color="#fff" offset="1"/>
  </linearGradient>
  <linearGradient id="d" x1="405.14" x2="405.42" y1="431.14" y2="430.27" gradientUnits="userSpaceOnUse">
   <stop stop-color="#9eabb0" offset="0"/>
   <stop stop-color="#bdcdd4" offset="1"/>
  </linearGradient>
  <linearGradient id="k" x1="403.52" x2="405.93" y1="428.18" y2="432.31" gradientUnits="userSpaceOnUse" xlink:href="#b"/>
  <linearGradient id="o" x1="406.97" x2="403.56" y1="418.54" y2="420.72" gradientUnits="userSpaceOnUse" xlink:href="#c"/>
  <linearGradient id="l" x1="397.84" x2="398.59" y1="422.34" y2="422.1" gradientTransform="matrix(1.1211 0 0 1.0156 -48.006 -6.6983)" gradientUnits="userSpaceOnUse" xlink:href="#c"/>
  <linearGradient id="n" x1="400.65" x2="400.32" y1="416.84" y2="411.16" gradientUnits="userSpaceOnUse" xlink:href="#b"/>
  <linearGradient id="m" x1="395.71" x2="399.03" y1="413.68" y2="415.13" gradientUnits="userSpaceOnUse" xlink:href="#b"/>
 </defs>
 <g transform="matrix(1.9498 0 0 2.0835 -759.74 -848.82)">
  <path transform="matrix(.88269 -.2221 .23652 .82888 -49.016 159.45)" d="m393.59878,431.82431c0,.80544-.39902,1.45837-.89123,1.45837s-.89123-.65293-.89123-1.45837 .39902-1.45837.89123-1.45837 .89123.65293.89123,1.45837z" fill="#364e59"/>
  <path d="m416.97 428.8-9.5536-2.4107-5.4911 2.4107c2.2346 0.6985 1.5409-0.93642 8.5797 4.9521z" fill="url(#h)"/>
  <path d="m410.67 433.8s-1.1966 0.83779-1.8053 0.625c-2.0252-0.70792-8.7051-2.5852-9.0912-2.8514l1.6121-2.104s0.66998-0.38422 1.0359-0.48659c1.0816-0.30257 2.2818-0.72548 3.3432-0.35355 1.3697 0.30097 2.6475-0.47364 4.9052 5.1705z" fill="url(#k)"/>
  <path d="m416.92386,428.80072c0,0-1.0072-1.9238-1.875-2.5-.7156-.47514-1.64436-.52301-2.5-.625-.65085-.0776-1.31328-.022-1.96825.0141-.56528.0312-1.6885.17454-1.6885.17454l-1.34325.43633 .0446.13393 3.79464,1.02679 4.10714.9375z" fill="#666"/>
  <path d="m407.46 426.35-4.2857-8.7946-5 0.625c1.8328 3.3624 3.4461 6.7922 3.75 10.625z" fill="#ff4141"/>
  <path d="m407.54886,426.30072-4.375-8.75v-3.125c0,0 1.79786.13019 2.5.625 .61401.43271 1.03233,1.15608 1.25,1.875 .18111.59819-.19764,1.28208 0,1.875 .3294.98822 1.32736,1.61391 1.875,2.5 .24491.39628.51798.79662.625,1.25 .1436.60829.23918,1.29758 0,1.875-.33825.81661-1.875,1.875-1.875,1.875z" fill="url(#o)"/>
  <path d="m401.55 429.45-1.2438-5.7578-1.8556-3.7882c-0.53177-1.6138-1.3431-2.854-2.1559-4.6899 0 0-0.5613-0.62556-0.7007-0.40804-0.16172 0.25239-0.4771 1.9226-0.40981 2.8949 0.0702 1.0137 0.83897 2.9305 0.83897 2.9305l1.0892 2.9981c0.86576 2.3277-0.91236-0.27197 3.2794 7.0001z" fill="url(#l)"/>
  <path d="m403.17 417.55v-3.125s-0.45745-2.0102-1.25-2.5c-1.0633-0.65716-2.7149-0.70078-3.75 0-0.92901 0.62898-1.25 3.125-1.25 3.125l1.25 3.125z" fill="url(#n)"/>
  <path d="m402.06 428.76-1.0714 0.75893s-1.3601-4.9346-2.1759-7.4107c-0.69955-2.1231-2.3776-6.3839-2.3776-6.3839l-0.71429-0.71429s1.2298-0.22187 1.2054 0c-0.0502 0.45472 4.0102 8.3654 4.0261 8.3416s1.1078 5.4084 1.1078 5.4084z" fill="url(#p)"/>
  <path d="m395.76 415.01c0.0152-1.3704 0.95602-1.8694 2.0982-2.9018-0.67562 0.96884-0.80741 1.8179-0.98214 2.8125z" fill="url(#m)"/>
  <path d="m416.29886,430.67572c.8512-.625.57441-1.25.625-1.875-3.89044-1.33012-8.07715.80006-6.6551,2.55785 .48358.74434.97514,1.48708.4051,2.44215z" fill="url(#i)"/>
  <path d="m409.96 432.28s0.76625 1.2161 0.2453 0.99255c-1.8305-0.78551-9.8319-3.2668-10.27-2.9814l1.1176-0.95062s0.62034-0.28232 0.95917-0.35755c1.0015-0.22232 2.1128-0.53307 3.0956-0.25979 1.2682 0.22115 2.7623-0.59044 4.8528 3.5568z" fill="url(#d)"/>
  <path transform="matrix(.87023 0 0 .7949 51.732 85.755)" d="m399.03 419.4 4.8644-0.99142" fill="none" filter="url(#a)" opacity=".17073" stroke="#000" stroke-width=".34869"/>
  <path transform="matrix(.87023 0 0 .7949 53.433 88.591)" d="m399.03 419.4 4.8644-0.99142" fill="none" filter="url(#a)" opacity=".17073" stroke="#000" stroke-width=".34869"/>
  <path transform="matrix(.87023 0 0 .7949 53.352 88.996)" d="m399.03 419.4 4.8644-0.99142" fill="none" filter="url(#a)" opacity=".17073" stroke="#000" stroke-width=".34869"/>
  <path transform="matrix(.84058 -.22523 .20574 .76781 -15.822 196.68)" d="m399.03 419.4 4.8644-0.99142" fill="none" filter="url(#a)" opacity=".17073" stroke="#000" stroke-width=".34869"/>
  <path transform="matrix(.79945 -.20007 .21421 .74666 -6.778 186.43)" d="m393.59878,431.82431c0,.80544-.39902,1.45837-.89123,1.45837s-.89123-.65293-.89123-1.45837 .39902-1.45837.89123-1.45837 .89123.65293.89123,1.45837z" fill="url(#j)"/>
  <path d="m400 431.5 1.2153-0.72918-0.64817-1.7825-1.4584 0.16204c0.50086 0.51148 1.578 0.25465 0.89123 2.3496z" fill="#9eabb0" opacity=".69268"/>
  <path d="m410.37 433.85c-1.4296-5.0703-4.5368-6.4931-9.0787-4.3689 0 0-0.57314-4.4758-2.0212-6.2448-1.6936-2.0689-3.0788-6.1576-3.0788-6.1576l-0.32845-1.8697 1.0576-0.39892c0.0929-0.94524 0.53224-1.3918 1.0533-2.3371" fill="none" filter="url(#q)" stroke="#555451" stroke-width=".20016"/>
 </g>
 <path d="m18.785 16.695-2.0735 1.6524 0.319 1.4872 3.3495-0.66097v-2.6439z" fill="url(#f)" stroke="#585252" stroke-width=".26787"/>
 <path d="m22.873 16.012 1.8928 0.8256-0.29119 1.2069-2.6939 0.75021-0.36364-2.5707z" fill="url(#g)" stroke="#585252" stroke-width=".224"/>
 <path transform="matrix(-.25882,.96593,-.96593,-.25882,0,0)" d="m28.588-52.189a0.74717 1.0068 0 0 1 0.74717 1.0068v3.8443a0.74717 1.0068 0 0 1 -0.74717 1.0068 0.74717 1.0068 0 0 1 -0.74717 -1.0068v-3.8443a0.74717 1.0068 0 0 1 0.74717 -1.0068" fill="#fff" opacity=".8" stroke="#585252" stroke-linecap="round" stroke-linejoin="round" stroke-width=".2602"/>
 <path transform="matrix(-.25882,.96593,-.96593,-.25882,0,0)" d="m40.573-39.776a0.74717 1.0068 0 0 1 0.74717 1.0068v3.8443a0.74717 1.0068 0 0 1 -0.74717 1.0068 0.74717 1.0068 0 0 1 -0.74717 -1.0068v-3.8443a0.74717 1.0068 0 0 1 0.74717 -1.0068" fill="url(#e)" opacity=".8" stroke="#b0b0b0" stroke-linecap="round" stroke-linejoin="round" stroke-width=".2602"/>
</svg>
